PathFileType	4	(X/Y/Z)	OpenSim_Sub06_CSStiffKnee_Magnet.trc
DataRate	CameraRate	NumFrames	NumMarkers	Units	OrigDataRate	OrigDataStartFrame	OrigNumFrames
100	100	40	8	m	100	4478	7164
Frame#	Time	torso_imu_offset_imu	pelvis_imu_offset_imu	tibia_r_imu_offset_imu	femur_r_imu_offset_imu	tibia_l_imu_offset_imu	femur_l_imu_offset_imu	toes_r_imu_offset_imu	toes_l_imu_offset_imu
				X1	Y1	Z1	X2	Y2	Z2	X3	Y3	Z3	X4	Y4	Z4	X5	Y5	Z5	X6	Y6	Z6	X7	Y7	Z7	X8		Y8	Z8	

4478	44.77000000	-0.92663604	-0.07622970	0.21925698	-0.41988709	0.14015493	-0.83502657	-0.43717763	-0.68553502	-0.21652277	-0.67040839	-0.47485861	0.07599828	-0.77843472	0.27025265	-0.02089679	-0.52044588	0.14420937	0.35235655	-0.60983747	-0.37791483	-0.49153921	-0.63963468	-0.09937183	-0.51580440
4479	44.78000000	-0.93024764	-0.08150173	0.21924260	-0.41922907	0.14381345	-0.82988612	-0.42476940	-0.68755180	-0.21378158	-0.66803753	-0.47979066	0.07767139	-0.77197498	0.26552020	-0.01525883	-0.52078477	0.14675509	0.35650533	-0.61686834	-0.37997716	-0.48926670	-0.64114600	-0.10132008	-0.51830936
4480	44.79000000	-0.93441245	-0.08298222	0.21734690	-0.42124635	0.15273159	-0.82915788	-0.41519340	-0.69147844	-0.21804284	-0.66893049	-0.48206999	0.07194170	-0.77230619	0.26081203	-0.01448197	-0.51991345	0.14800999	0.35431247	-0.61871065	-0.38856158	-0.48824678	-0.63721061	-0.10853708	-0.51612969
4481	44.80000000	-0.93274941	-0.08563706	0.21292787	-0.42244085	0.15677438	-0.82386939	-0.40669586	-0.69334651	-0.21719759	-0.66629483	-0.48583567	0.06756307	-0.77690716	0.26900518	-0.01043702	-0.51888392	0.14217383	0.35785388	-0.61992106	-0.39642295	-0.48388230	-0.63957728	-0.11018137	-0.51600848
4482	44.81000000	-0.93360196	-0.08609779	0.20646997	-0.42659219	0.16138011	-0.81856047	-0.39916176	-0.69492921	-0.21701980	-0.66187225	-0.48805259	0.07273900	-0.77459602	0.27725146	-0.00889817	-0.51977115	0.13754885	0.36305313	-0.62237110	-0.40357722	-0.47783806	-0.64032867	-0.10962767	-0.51308566
4483	44.82000000	-0.92934745	-0.08524210	0.20469158	-0.42965516	0.17050013	-0.82242679	-0.39108029	-0.69959581	-0.22343144	-0.66365677	-0.49254319	0.06927270	-0.76817295	0.28142759	-0.00699408	-0.51387483	0.12940427	0.36952032	-0.62523746	-0.41579025	-0.46757202	-0.64992897	-0.10390845	-0.49752352
4484	44.83000000	-0.93160632	-0.08598550	0.19682227	-0.43258526	0.17237489	-0.81722235	-0.37821147	-0.71331154	-0.23270139	-0.66108996	-0.49645793	0.06974592	-0.76379985	0.29586258	-0.00455838	-0.51078208	0.12752654	0.37398218	-0.63287866	-0.42088301	-0.46234965	-0.66934734	-0.08658780	-0.47360938
4485	44.84000000	-0.93451505	-0.08620483	0.19362610	-0.43438323	0.17984247	-0.81557779	-0.36699102	-0.72052749	-0.23029168	-0.66252229	-0.49695926	0.06423469	-0.75765667	0.30451235	0.00265643	-0.50596556	0.11693883	0.37830579	-0.63151873	-0.42974805	-0.45896799	-0.68563626	-0.08780893	-0.46734086
4486	44.85000000	-0.93102184	-0.09159071	0.18459337	-0.44005539	0.18880724	-0.80859111	-0.35545417	-0.72364362	-0.23482175	-0.66307709	-0.49571350	0.06702693	-0.75307973	0.31302845	0.00677524	-0.49894254	0.11383677	0.38882228	-0.63701912	-0.43565667	-0.45518910	-0.69299275	-0.07639132	-0.44176592
4487	44.86000000	-0.93041271	-0.09124168	0.17894261	-0.44046276	0.19439222	-0.79828284	-0.34118063	-0.72767909	-0.23801697	-0.65797335	-0.49775762	0.06681064	-0.74725418	0.32514410	0.01094788	-0.49923268	0.10873818	0.40534960	-0.63674819	-0.44787427	-0.44206366	-0.69389003	-0.05068914	-0.43696120
4488	44.87000000	-0.93180544	-0.09791746	0.17558308	-0.45048995	0.19543409	-0.79547630	-0.32389058	-0.72720026	-0.24334356	-0.65911288	-0.49785610	0.06608299	-0.74665525	0.33111901	0.01516277	-0.49605582	0.10220198	0.41413183	-0.64188414	-0.45539229	-0.42902414	-0.68476057	-0.06156772	-0.47012406
4489	44.88000000	-0.93312431	-0.10012987	0.17356795	-0.46048416	0.19651713	-0.79201045	-0.31593151	-0.73698973	-0.23854635	-0.66399155	-0.49600060	0.06502882	-0.74576765	0.34174360	0.01025694	-0.49515936	0.10438672	0.42423976	-0.64826930	-0.46436043	-0.41542433	-0.69258114	-0.07703408	-0.45126075
4490	44.89000000	-0.93624572	-0.09543983	0.17143413	-0.46281949	0.19177261	-0.78910905	-0.29912498	-0.74021192	-0.24080195	-0.66495930	-0.49001042	0.06536465	-0.73734246	0.35931598	0.01579037	-0.49370257	0.11521176	0.42713038	-0.65277189	-0.47977477	-0.39212712	-0.69113343	-0.05425537	-0.45654562
4491	44.90000000	-0.93340423	-0.10041855	0.16370474	-0.46865931	0.19294938	-0.78587917	-0.29018056	-0.74314265	-0.24961534	-0.67259932	-0.48921581	0.06152402	-0.72695723	0.37760443	0.01926562	-0.49198591	0.11698993	0.42952998	-0.65013912	-0.49925632	-0.37370478	-0.69618867	-0.06349712	-0.45189926
4492	44.91000000	-0.93492595	-0.10230136	0.15850917	-0.47116728	0.18516021	-0.78032043	-0.27691657	-0.75235798	-0.24534135	-0.67690099	-0.48498753	0.06550561	-0.71913596	0.39484524	0.03197072	-0.49475172	0.11311036	0.43148662	-0.65212678	-0.50853644	-0.35078758	-0.69621537	-0.06581814	-0.44893221
4493	44.92000000	-0.93448773	-0.09876375	0.16486807	-0.47302607	0.18009547	-0.78628587	-0.26179594	-0.75399055	-0.24808028	-0.67733828	-0.47759764	0.06871516	-0.70964330	0.41021016	0.03480818	-0.48978612	0.10627191	0.43537447	-0.65970654	-0.52059785	-0.32208607	-0.69521642	-0.06913625	-0.44435752
4494	44.93000000	-0.92971835	-0.09410792	0.15770755	-0.46932652	0.17895774	-0.78394732	-0.24925526	-0.76224432	-0.24902171	-0.68380455	-0.46755983	0.06233545	-0.70397023	0.41157613	0.04413463	-0.48668079	0.10024943	0.43599104	-0.65703649	-0.54079979	-0.29384603	-0.69575324	-0.07734099	-0.44223272
4495	44.94000000	-0.93245673	-0.09921411	0.15930427	-0.47277763	0.18337739	-0.79085642	-0.23054700	-0.76807548	-0.24776072	-0.69644621	-0.45079862	0.05629588	-0.70192440	0.41919908	0.05732631	-0.47929889	0.09211070	0.43277750	-0.65842085	-0.55821046	-0.26429776	-0.69140805	-0.08402085	-0.44375604
4496	44.95000000	-0.93103552	-0.09857118	0.15803617	-0.47347858	0.18706417	-0.79109777	-0.21569562	-0.76761752	-0.25516444	-0.70703296	-0.44278420	0.05508173	-0.69918007	0.42055238	0.05870040	-0.46703368	0.08351566	0.44133099	-0.65503979	-0.57700072	-0.22798174	-0.69649251	-0.08214968	-0.43285809
4497	44.96000000	-0.93011508	-0.10369511	0.15664852	-0.47117423	0.18677044	-0.78273210	-0.19562686	-0.77024372	-0.25180269	-0.71580926	-0.42617101	0.04390489	-0.70290406	0.42047593	0.06925434	-0.45138995	0.08650746	0.44486795	-0.64878710	-0.58951708	-0.19561101	-0.70081938	-0.08227854	-0.43939040
4498	44.97000000	-0.93151168	-0.10579774	0.15642148	-0.47324029	0.19673098	-0.78529473	-0.17960028	-0.77203193	-0.25740326	-0.72969023	-0.41196436	0.03611935	-0.69428468	0.43088633	0.07459754	-0.44749067	0.09438211	0.45668232	-0.63795859	-0.60980761	-0.16407564	-0.69828594	-0.08505811	-0.44056843
4499	44.98000000	-0.93261455	-0.11223838	0.15441140	-0.47226595	0.20419691	-0.78135768	-0.16786520	-0.77462569	-0.26333194	-0.73468808	-0.40405827	0.02178845	-0.69200331	0.43809088	0.07746882	-0.44610464	0.10673543	0.46023687	-0.62451650	-0.62848087	-0.13731063	-0.69772456	-0.08414565	-0.43851339
4500	44.99000000	-0.93567129	-0.11066122	0.15147522	-0.46554308	0.21012623	-0.77681877	-0.15081462	-0.77969686	-0.26168345	-0.74249040	-0.39304417	0.01625150	-0.68604730	0.44280830	0.06746218	-0.44335514	0.12752605	0.46628466	-0.60638407	-0.65090965	-0.11538369	-0.69669193	-0.08792256	-0.43196967
4501	45	-0.92846102	-0.11526522	0.15204568	-0.46951643	0.21780601	-0.78213116	-0.14073265	-0.78082478	-0.26541864	-0.75028803	-0.37945096	0.00905381	-0.68820645	0.44534995	0.07148267	-0.44719707	0.15224983	0.47116229	-0.59265710	-0.67330644	-0.08625547	-0.70254317	-0.08865162	-0.43140169
4502	45.01000000	-0.92665227	-0.11659396	0.15451732	-0.47089734	0.22740518	-0.77436715	-0.13445617	-0.77880324	-0.26184171	-0.75448760	-0.36691770	0.00605999	-0.68824542	0.44728596	0.07395613	-0.45791981	0.17182907	0.45656987	-0.57670691	-0.67706252	-0.07143342	-0.70431097	-0.09270609	-0.42996425
4503	45.02000000	-0.93404248	-0.11971598	0.15063450	-0.47223089	0.23324579	-0.77004223	-0.13042421	-0.78098775	-0.26200571	-0.75863736	-0.35769171	-0.00517857	-0.68545423	0.45135159	0.07724464	-0.45708063	0.18696273	0.45527664	-0.57310625	-0.68401609	-0.08123918	-0.69836189	-0.09608937	-0.42577996
4504	45.03000000	-0.92957728	-0.12302007	0.14960716	-0.47172096	0.23965566	-0.77295120	-0.12854253	-0.77422473	-0.27013393	-0.76496337	-0.34661959	-0.00453480	-0.68627624	0.45211840	0.07717134	-0.46302622	0.19215407	0.45765129	-0.57612371	-0.67636967	-0.08845947	-0.69617788	-0.10155953	-0.42288046
4505	45.04000000	-0.92601662	-0.12213395	0.14702971	-0.46709230	0.24200542	-0.77586571	-0.12149981	-0.77345151	-0.27999889	-0.77555172	-0.34016974	-0.00551647	-0.67860629	0.46241674	0.08405785	-0.45923748	0.20578376	0.45542538	-0.57545756	-0.67304759	-0.09085277	-0.70181649	-0.10039145	-0.42494317
4506	45.05000000	-0.92852344	-0.12396949	0.15205122	-0.46892932	0.24359615	-0.76538281	-0.12650209	-0.77323873	-0.29050618	-0.77941421	-0.32945432	-0.01154538	-0.67233378	0.45848579	0.09343546	-0.45593393	0.21181976	0.45313780	-0.57879162	-0.66886587	-0.09661316	-0.70066105	-0.10197332	-0.42968438
4507	45.06000000	-0.92898172	-0.13094374	0.15371028	-0.46779163	0.24878437	-0.77317950	-0.13144208	-0.76504256	-0.30555844	-0.78101328	-0.31804497	-0.01236061	-0.66902794	0.45879701	0.09448476	-0.45345705	0.21431771	0.45726995	-0.58130087	-0.66052631	-0.10646090	-0.69957116	-0.10600166	-0.42101918
4508	45.07000000	-0.92097672	-0.13705895	0.15316579	-0.46882086	0.24895367	-0.77283865	-0.13608017	-0.75257026	-0.32671009	-0.78827861	-0.30327793	-0.01723632	-0.67027219	0.46893299	0.10172733	-0.44902930	0.21832288	0.45705659	-0.59205706	-0.64514308	-0.11170653	-0.70828331	-0.10431949	-0.42199189
4509	45.08000000	-0.92289935	-0.13889578	0.15172123	-0.46422924	0.25455882	-0.77381441	-0.14611368	-0.74370678	-0.33644663	-0.79109386	-0.29297475	-0.02146859	-0.66820595	0.47018034	0.10499915	-0.44369344	0.22082725	0.45999322	-0.59856992	-0.63242111	-0.12932461	-0.70478742	-0.10497770	-0.41901246
4510	45.09000000	-0.92478215	-0.13839735	0.15508609	-0.46353851	0.25614166	-0.76971675	-0.15443550	-0.73359011	-0.34918708	-0.79104915	-0.28694960	-0.02665356	-0.66234435	0.47596188	0.09878491	-0.44391114	0.22538598	0.46560536	-0.60732407	-0.62153097	-0.14096484	-0.70314114	-0.11003900	-0.41701723
4511	45.10000000	-0.92247295	-0.14654721	0.15509419	-0.46193885	0.25598963	-0.77047564	-0.17334171	-0.73306836	-0.36124509	-0.79611737	-0.27790558	-0.03324032	-0.65989679	0.48179396	0.10374409	-0.44615416	0.22975436	0.47081682	-0.61306653	-0.60690253	-0.15500348	-0.71027120	-0.10713441	-0.41386872
4512	45.11000000	-0.92013980	-0.15371399	0.15305341	-0.45933468	0.26197701	-0.77532099	-0.19113949	-0.71720149	-0.36235179	-0.80246734	-0.27117000	-0.04224546	-0.65683656	0.48689092	0.09926965	-0.43679711	0.23367458	0.47006602	-0.61695309	-0.58754258	-0.17314633	-0.71046092	-0.10817292	-0.41066177
4513	45.12000000	-0.92388477	-0.15775937	0.15740020	-0.45726479	0.26460433	-0.77842984	-0.20721306	-0.71273348	-0.36007647	-0.80321958	-0.26596942	-0.04181747	-0.65595412	0.49232122	0.10110882	-0.43519487	0.23618365	0.46969280	-0.61916302	-0.56576530	-0.19567425	-0.70811484	-0.10605126	-0.41026602
4514	45.13000000	-0.91963417	-0.16154162	0.15678294	-0.45371920	0.26667783	-0.77283557	-0.22925439	-0.71189266	-0.36432220	-0.80648904	-0.25426086	-0.05328665	-0.65188850	0.49511998	0.09842078	-0.42946744	0.24095047	0.47119113	-0.62267838	-0.55283283	-0.22162751	-0.71096135	-0.10449623	-0.40901654
4515	45.14000000	-0.91741362	-0.16271221	0.15740161	-0.46082005	0.26678740	-0.77486275	-0.24801242	-0.70384235	-0.36427674	-0.80981953	-0.24657972	-0.04786757	-0.64927579	0.50248394	0.10367058	-0.43330037	0.24924796	0.47460708	-0.62556499	-0.53090325	-0.24522948	-0.71523312	-0.11110535	-0.41115934
4516	45.15000000	-0.91875379	-0.16740724	0.16562197	-0.46129648	0.27106635	-0.77376264	-0.26890893	-0.69305641	-0.36349170	-0.81274722	-0.24401630	-0.05352683	-0.64619499	0.50821451	0.10916299	-0.42846767	0.25828602	0.47028931	-0.62001514	-0.51173948	-0.26850499	-0.71333126	-0.11265030	-0.40609062
4517	45.16000000	-0.91678651	-0.17375649	0.17183214	-0.45789954	0.26689279	-0.77449961	-0.29701721	-0.68282895	-0.35976691	-0.80600018	-0.23380905	-0.05826639	-0.64523007	0.51282934	0.10317382	-0.42671889	0.25962328	0.46829980	-0.62047969	-0.49522488	-0.29279423	-0.71566084	-0.10966820	-0.40303176
